HIERARCHY
ROOT Hips
{
	OFFSET 0.000000 0.000000 0.000000 
	CHANNELS 6 Xposition Yposition Zposition Zrotation Yrotation Xrotation
	JOINT LeftUpLeg
	{
		OFFSET 1.363060 -1.794630 0.839290 
		CHANNELS 3 Zrotation Yrotation Xrotation
		JOINT LeftLeg
		{
			OFFSET 2.448110 -6.726130 0.000000 
			CHANNELS 3 Zrotation Yrotation Xrotation
			JOINT LeftFoot
			{
				OFFSET 2.562200 -7.039590 0.000000 
				CHANNELS 3 Zrotation Yrotation Xrotation
				JOINT LeftToeBase
				{
					OFFSET 0.157640 -0.433110 2.322550 
					CHANNELS 3 Zrotation Yrotation Xrotation
					End Site
					{
						OFFSET 0.000000 0.000000 0.000000 
					}
				}
			}
		}
	}
	JOINT RightUpLeg
	{
		OFFSET -1.305520 -1.794630 0.839290 
		CHANNELS 3 Zrotation Yrotation Xrotation
		JOINT RightLeg
		{
			OFFSET -2.542530 -6.985550 0.000000 
			CHANNELS 3 Zrotation Yrotation Xrotation
			JOINT RightFoot
			{
				OFFSET -2.568260 -7.056230 0.000000 
				CHANNELS 3 Zrotation Yrotation Xrotation
				JOINT RightToeBase
				{
					OFFSET -0.164730 -0.452590 2.363150 
					CHANNELS 3 Zrotation Yrotation Xrotation
					End Site
					{
						OFFSET 0.000000 0.000000 0.000000 
					}
				}
			}
		}
	}
	JOINT Spine
	{
		OFFSET 0.028270 2.035590 -0.193380 
		CHANNELS 3 Zrotation Yrotation Xrotation
		JOINT Spine1
		{
			OFFSET 0.056720 2.048850 -0.042750 
			CHANNELS 3 Zrotation Yrotation Xrotation
			JOINT Neck1
			{
				OFFSET -0.054170 1.746240 0.172020 
				CHANNELS 3 Zrotation Yrotation Xrotation
				JOINT Head
				{
					OFFSET 0.104070 1.761360 -0.123970 
					CHANNELS 3 Zrotation Yrotation Xrotation
					End Site
					{
						OFFSET 0.000000 0.000000 0.000000 
					}
				}
			}
			JOINT LeftArm
			{
				OFFSET 3.362410 1.200890 -0.311210 
				CHANNELS 3 Zrotation Yrotation Xrotation
				JOINT LeftForeArm
				{
					OFFSET 4.983000 -0.000000 -0.000000 
					CHANNELS 3 Zrotation Yrotation Xrotation
					JOINT LeftHand
					{
						OFFSET 3.483560 -0.000000 -0.000000 
						CHANNELS 3 Zrotation Yrotation Xrotation
						JOINT LeftHandIndex1
						{
							OFFSET 0.715260 -0.000000 -0.000000 
							CHANNELS 3 Zrotation Yrotation Xrotation
							End Site
							{
								OFFSET 0.000000 0.000000 0.000000 
							}
						}
					}
				}
			}
			JOINT RightArm
			{
				OFFSET -3.136600 1.374050 -0.404650 
				CHANNELS 3 Zrotation Yrotation Xrotation
				JOINT RightForeArm
				{
					OFFSET -5.241900 -0.000000 -0.000000 
					CHANNELS 3 Zrotation Yrotation Xrotation
					JOINT RightHand
					{
						OFFSET -3.444170 -0.000000 -0.000000 
						CHANNELS 3 Zrotation Yrotation Xrotation
						JOINT RightHandIndex1
						{
							OFFSET -0.622530 -0.000000 -0.000000 
							CHANNELS 3 Zrotation Yrotation Xrotation
							End Site
							{
								OFFSET 0.000000 0.000000 0.000000 
							}
						}
					}
				}
			}
		}
	}
}
MOTION
Frames: 18
Frame Time: 0.041667
-11.294700 2.301000 -0.125600 -93.956300 0.907100 157.155000 -21.096700 -18.785200 -17.361400 3.040100 10.759600 31.473500 0.447300 9.592900 12.780000 0.043000 1.338700 3.681300 18.664600 -20.919200 -8.652200 -11.888500 -18.343100 65.634800 -0.893700 -5.646200 16.862400 -0.674600 -5.252100 14.629000 2.743000 0.137500 10.431600 2.983200 -0.731800 -1.794200 -16.253800 10.205700 25.784300 -3.346200 1.903700 14.064800 69.230600 -73.325000 -9.137700 18.490500 -28.780700 -4.783100 0.000000 0.000000 -54.768800 -7.125000 0.000000 0.000000 98.518800 17.531400 87.152600 -93.925400 59.941700 -63.398800 0.000000 0.000000 -8.139900 7.125000 0.000000 0.000000 
-11.276800 2.290300 -0.081400 -93.946600 0.916600 156.780000 -21.193800 -18.641100 -17.000300 2.984000 10.669100 31.171800 0.465900 9.724800 13.024500 0.048400 1.419800 3.904600 18.455900 -20.841700 -8.526500 -12.088300 -18.427700 66.268500 -0.852000 -6.364400 16.462300 -0.658000 -5.188100 14.445900 2.716200 0.157200 10.428500 2.876500 -0.734900 -2.238600 -16.191200 10.252300 25.876700 -3.339500 1.939200 14.107500 68.363500 -73.776300 -10.112200 18.065700 -28.241200 -4.580300 0.000000 0.000000 -52.969000 -7.125000 0.000000 0.000000 98.083800 17.611000 86.999100 -94.717200 59.915800 -64.084100 0.000000 0.000000 -7.619700 7.125000 0.000000 0.000000 
-11.258300 2.279600 -0.037400 -93.937300 0.927400 156.405000 -21.285500 -18.508800 -16.678800 2.943800 10.603600 30.954200 0.479200 9.840100 13.203600 0.050000 1.443300 3.969400 18.238800 -20.714600 -8.532000 -12.460600 -18.578600 67.441400 -0.767900 -6.929600 15.664300 -0.641000 -5.121900 14.256500 2.693100 0.179400 10.435800 2.770700 -0.739300 -2.667100 -16.212800 10.186300 25.816400 -3.369100 1.917000 14.078800 67.475300 -74.235900 -11.185700 17.644900 -27.700100 -4.382900 0.000000 0.000000 -50.914200 -7.125000 0.000000 0.000000 97.661400 17.801900 86.840600 -95.424200 59.888500 -64.695800 0.000000 0.000000 -7.162700 7.125000 0.000000 0.000000 
-11.240900 2.268200 -0.009500 -93.951200 1.015600 156.033000 -21.378400 -18.316300 -16.366500 2.919300 10.563200 30.820500 0.486400 9.962800 13.317300 0.051900 1.470600 4.044800 17.975300 -20.584000 -8.503800 -12.927600 -18.755900 68.900600 -0.657100 -7.343400 14.570500 -0.634700 -5.097300 14.186200 2.667400 0.176800 10.448700 2.667000 -0.754200 -3.012200 -16.235700 10.131400 25.748400 -3.377700 1.888900 14.045300 65.937200 -74.794000 -11.910800 17.224300 -27.152500 -4.189200 0.000000 0.000000 -48.567400 -7.125000 0.000000 0.000000 97.236900 17.921700 86.792200 -96.044300 59.861500 -65.232100 0.000000 0.000000 -6.640000 7.125000 0.000000 0.000000 
-11.000000 2.299900 0.473700 -92.953800 2.015000 155.714000 -18.974700 -18.854200 -18.263700 2.928300 10.578000 30.869500 0.645200 10.891800 15.181700 0.049800 1.440100 3.960800 20.759000 -18.596400 -11.750100 -13.836400 -19.063700 71.704300 -0.650400 -7.105400 14.471800 -0.541600 -4.715200 13.098100 3.114500 0.924100 8.875100 2.470800 -0.468900 -7.202800 -16.143600 9.849900 25.516300 -3.410200 1.795000 13.933900 66.429200 -74.536200 -13.701400 17.025600 -26.891500 -4.098900 0.000000 0.000000 -47.080600 -7.125000 0.000000 0.000000 97.234600 19.104900 86.687000 -96.609700 59.834300 -65.721000 0.000000 0.000000 -5.617800 7.125000 0.000000 0.000000 
-10.856900 2.312400 0.717900 -92.166800 2.541100 155.681000 -17.387500 -19.277800 -19.531600 2.983600 10.668500 31.169800 0.728100 11.316900 16.064900 0.052400 1.476800 4.061800 22.413300 -17.605500 -13.729900 -14.559400 -19.275000 73.906000 -0.591600 -6.910600 13.812600 -0.428100 -4.198800 11.636800 3.387900 1.331800 8.085900 2.350900 -0.332200 -9.068300 -16.147500 9.718700 25.386000 -3.441600 1.744200 13.883100 66.139600 -74.648900 -14.954800 16.754100 -26.532400 -3.976900 0.000000 0.000000 -45.428800 -7.125000 0.000000 0.000000 97.694200 20.874500 87.739400 -96.481800 59.840600 -65.610400 0.000000 0.000000 -6.491200 7.125000 0.000000 0.000000 
-10.836200 2.308600 0.726200 -91.588100 2.587100 155.911000 -16.671400 -19.600600 -20.056600 3.064900 10.799400 31.606300 0.714900 11.295300 15.939900 0.052400 1.476700 4.061500 23.076300 -17.519700 -14.325100 -14.915700 -19.368600 74.982700 -0.520700 -7.062900 13.030500 -0.289800 -3.462000 9.567900 3.597500 1.355600 8.034100 2.308400 -0.328600 -9.066100 -16.249300 9.703800 25.346600 -3.480300 1.723500 13.882000 67.579800 -74.204000 -14.258500 16.862700 -26.676400 -4.025500 0.000000 0.000000 -47.654800 -7.125000 0.000000 0.000000 97.585300 20.923200 87.703400 -96.621000 59.833700 -65.730800 0.000000 0.000000 -6.378600 7.125000 0.000000 0.000000 
-10.819600 2.306100 0.726900 -91.113300 2.646500 156.135000 -16.045300 -19.840600 -20.624200 3.170400 10.965900 32.164900 0.690700 11.250800 15.706500 0.053700 1.494900 4.111700 23.648200 -17.515700 -14.690400 -15.055300 -19.403400 75.403200 -0.480200 -7.475500 12.628900 -0.175000 -2.694600 7.429700 3.729000 1.321300 7.968400 2.254400 -0.344700 -9.075100 -16.272300 9.836200 25.391200 -3.485800 1.781100 13.942500 67.734400 -73.802600 -13.040700 17.049400 -26.922900 -4.109700 0.000000 0.000000 -49.058100 -7.125000 0.000000 0.000000 97.588200 20.859100 87.814100 -96.762400 59.826500 -65.853000 0.000000 0.000000 -6.330400 7.125000 0.000000 0.000000 
-10.810700 2.309300 0.729200 -90.730700 2.645000 156.377000 -15.525000 -20.131300 -21.176200 3.275300 11.127900 32.712400 0.669000 11.227500 15.500600 0.056200 1.529900 4.208300 24.158200 -17.592800 -15.055900 -15.080600 -19.409600 75.479500 -0.457000 -8.091500 12.486700 -0.092500 -1.961500 5.399300 3.791500 1.306500 7.976500 2.145100 -0.352000 -8.950000 -16.241000 9.848800 25.386700 -3.496100 1.802100 13.952400 69.653600 -73.266000 -12.151000 17.231400 -27.161900 -4.192400 0.000000 0.000000 -51.841100 -7.125000 0.000000 0.000000 97.673700 20.956600 87.828700 -96.682000 59.830600 -65.783500 0.000000 0.000000 -6.489300 7.125000 0.000000 0.000000 
-10.806400 2.310100 0.729500 -90.421200 2.597600 156.607000 -15.126800 -20.400700 -21.644600 3.361600 11.258600 33.157200 0.650900 11.175000 15.316300 0.059100 1.568500 4.314600 24.514300 -17.743500 -15.433800 -15.112600 -19.417400 75.575500 -0.434500 -8.716400 12.381400 -0.042600 -1.332300 3.663700 3.918100 1.354600 8.099300 2.092800 -0.331800 -8.769400 -16.173300 9.674300 25.313400 -3.480700 1.731700 13.879600 73.357600 -72.632200 -11.379600 17.481200 -27.487800 -4.307100 0.000000 0.000000 -56.364600 -7.125000 0.000000 0.000000 97.590200 21.078700 87.626500 -96.567600 59.836400 -65.684500 0.000000 0.000000 -6.510300 7.125000 0.000000 0.000000 
-10.799200 2.305200 0.725300 -90.167400 2.594300 156.802000 -14.801600 -20.647800 -22.014900 3.432500 11.364300 33.518600 0.639100 11.127300 15.191800 0.061300 1.597800 4.395400 24.743000 -17.910400 -15.746200 -15.146200 -19.425500 75.676700 -0.406600 -9.326300 12.238100 -0.012300 -0.716400 1.968800 4.024200 1.384300 8.095900 2.071600 -0.318100 -8.667900 -16.159000 9.600400 25.279200 -3.474400 1.698700 13.845200 75.155800 -72.098800 -10.467800 17.812500 -27.916400 -4.461100 0.000000 0.000000 -59.189200 -7.125000 0.000000 0.000000 97.467400 21.038400 87.440500 -96.763600 59.826400 -65.854000 0.000000 0.000000 -6.371800 7.125000 0.000000 0.000000 
-10.791200 2.302200 0.723500 -89.992700 2.648900 156.932000 -14.534900 -20.836700 -22.301700 3.497700 11.460200 33.848100 0.626500 11.114100 15.068800 0.062700 1.615300 4.443600 24.920700 -17.964600 -15.955900 -15.172800 -19.431900 75.756500 -0.372500 -9.938600 12.050100 -0.000400 -0.128200 0.352300 4.049800 1.374500 8.047800 2.011900 -0.319700 -8.677700 -16.167400 9.621400 25.247900 -3.481200 1.717400 13.827200 74.497400 -72.275100 -10.574300 17.730800 -27.811100 -4.422900 0.000000 0.000000 -58.337000 -7.125000 0.000000 0.000000 97.515000 20.952500 87.457200 -96.919900 59.818300 -65.989100 0.000000 0.000000 -6.360600 7.125000 0.000000 0.000000 
-10.789700 2.301300 0.716600 -89.811300 2.718400 157.066000 -14.247200 -20.936500 -22.566900 3.557100 11.546400 34.145700 0.602500 11.074300 14.827500 0.063000 1.619600 4.455500 25.127900 -17.967200 -16.077200 -15.178900 -19.433400 75.774900 -0.331300 -10.518800 11.795900 -0.007000 0.540800 -1.486100 4.127400 1.371900 7.979300 2.023800 -0.316700 -8.707400 -16.176500 9.666000 25.261300 -3.467400 1.731400 13.834200 73.552100 -72.543100 -10.522100 17.637900 -27.691000 -4.379700 0.000000 0.000000 -57.394300 -7.125000 0.000000 0.000000 97.491800 20.858400 87.562200 -96.855800 59.821700 -65.933700 0.000000 0.000000 -6.395200 7.125000 0.000000 0.000000 
-10.794900 2.301000 0.699600 -89.549100 2.752500 157.261000 -13.899400 -21.046700 -22.816900 3.596600 11.603300 34.342600 0.582900 11.042600 14.628600 0.063300 1.623300 4.465700 25.397700 -18.090200 -16.201500 -15.167400 -19.430600 75.740400 -0.280300 -11.100100 11.454000 -0.030800 1.132600 -3.113800 4.254000 1.358900 7.938600 2.073000 -0.316600 -8.638200 -16.214600 9.741400 25.330900 -3.464800 1.749800 13.882800 73.359300 -72.531900 -9.943300 17.698600 -27.769500 -4.407900 0.000000 0.000000 -57.903700 -7.125000 0.000000 0.000000 97.356900 20.776100 87.623900 -96.796600 59.824700 -65.882600 0.000000 0.000000 -6.378800 7.125000 0.000000 0.000000 
-10.792800 2.302100 0.692800 -89.578400 2.877000 157.358000 -13.809900 -21.019400 -22.982600 3.622000 11.639700 34.469000 0.570600 11.175800 14.551000 0.069900 1.705400 4.692200 25.289700 -18.264900 -16.341700 -15.189700 -19.435900 75.807300 -0.290200 -10.764300 11.420900 -0.184500 2.766200 -7.628600 4.283800 1.409400 7.926600 2.120200 -0.290900 -8.618900 -16.053700 9.788000 25.395400 -3.365400 1.766700 13.906500 73.203300 -72.458400 -9.479400 17.760100 -27.848900 -4.436600 0.000000 0.000000 -58.298200 -7.125000 0.000000 0.000000 97.239600 20.768100 87.664100 -96.797000 59.824700 -65.882900 0.000000 0.000000 -6.477900 7.125000 0.000000 0.000000 
-10.791700 2.305700 0.698500 -89.900200 3.093500 157.355000 -13.984100 -20.841500 -23.020700 3.624400 11.643100 34.481000 0.566500 11.339000 14.563900 0.065200 1.647600 4.532700 25.050400 -18.005000 -16.338600 -15.212700 -19.441400 75.876700 -0.286400 -10.818800 11.400500 -0.064200 1.635400 -4.499100 4.227500 1.546500 7.934400 2.157200 -0.230000 -8.659900 -15.764900 9.738400 25.432700 -3.209600 1.744300 13.896300 72.864800 -72.532600 -9.671900 17.716700 -27.792800 -4.416300 0.000000 0.000000 -57.702500 -7.125000 0.000000 0.000000 97.218300 20.818300 87.642900 -96.759600 59.826600 -65.850600 0.000000 0.000000 -6.583700 7.125000 0.000000 0.000000 
-10.792400 2.309500 0.694500 -90.103600 3.308700 157.369000 -14.046800 -20.718400 -22.992000 3.612200 11.625700 34.420300 0.560100 11.459500 14.541500 0.062500 1.613500 4.438800 24.928900 -17.796100 -16.284500 -15.221300 -19.443500 75.902400 -0.280800 -10.847300 11.346700 -0.042800 1.334700 -3.670100 4.121100 1.602800 7.897100 2.115800 -0.198100 -8.721200 -15.658100 9.737800 25.422400 -3.163300 1.756700 13.878700 71.844700 -72.762600 -9.545100 17.617100 -27.664100 -4.370000 0.000000 0.000000 -56.555000 -7.125000 0.000000 0.000000 97.430000 20.728700 87.770100 -96.698200 59.829800 -65.797500 0.000000 0.000000 -6.540600 7.125000 0.000000 0.000000 
-10.799200 2.315300 0.694700 -90.205900 3.493100 157.398000 -14.026600 -20.665200 -22.931200 3.590000 11.593900 34.310200 0.556300 11.585200 14.546900 0.061600 1.601800 4.406500 24.965000 -17.528400 -16.229300 -15.212300 -19.441300 75.875300 -0.283600 -10.900900 11.403400 -0.056700 1.536900 -4.227500 3.996900 1.646100 7.813900 2.037600 -0.168900 -8.845800 -15.727200 9.766200 25.391900 -3.238500 1.799400 13.863900 71.195900 -72.934100 -9.216300 17.572700 -27.606600 -4.349400 0.000000 0.000000 -56.025700 -7.125000 0.000000 0.000000 97.698000 20.562100 87.852700 -96.763000 59.826500 -65.853500 0.000000 0.000000 -6.416000 7.125000 0.000000 0.000000 
